<svg width="22" height="22" viewBox="0 0 22 22" fill="none" xmlns="http://www.w3.org/2000/svg">
<g clip-path="url(#clip0_4_48)">
<path d="M11 22C17.0751 22 22 17.0751 22 11C22 4.92487 17.0751 0 11 0C4.92487 0 0 4.92487 0 11C0 17.0751 4.92487 22 11 22Z" fill="#3B5998"/>
<path d="M13.7654 11.4306H11.8026V18.6215H8.82875V11.4306H7.41438V8.90346H8.82875V7.26811C8.82875 6.09865 9.38426 4.26741 11.829 4.26741L14.0319 4.27663V6.72966H12.4336C12.1714 6.72966 11.8028 6.86064 11.8028 7.4185V8.90581H14.0252L13.7654 11.4306Z" fill="white"/>
</g>
<defs>
<clipPath id="clip0_4_48">
<rect width="22" height="22" fill="white"/>
</clipPath>
</defs>
</svg>
